<svg width="30" height="34" viewBox="0 0 30 34" fill="none" xmlns="http://www.w3.org/2000/svg">
<path d="M16.1953 26.2727V24.6619C16.1953 23.4389 16.4538 22.3153 16.9709 21.2912C17.4979 20.2571 18.2585 19.4318 19.2528 18.8153C20.2571 18.1889 21.4801 17.8757 22.9219 17.8757C24.3835 17.8757 25.6115 18.1839 26.6058 18.8004C27.6101 19.4169 28.3658 20.2422 28.8729 21.2763C29.3899 22.3004 29.6484 23.429 29.6484 24.6619V26.2727C29.6484 27.4957 29.3899 28.6243 28.8729 29.6584C28.3558 30.6825 27.5952 31.5028 26.5909 32.1193C25.5866 32.7457 24.3636 33.0589 22.9219 33.0589C21.4602 33.0589 20.2322 32.7457 19.2379 32.1193C18.2436 31.5028 17.4879 30.6825 16.9709 29.6584C16.4538 28.6243 16.1953 27.4957 16.1953 26.2727ZM20.5355 24.6619V26.2727C20.5355 26.9787 20.7045 27.6449 21.0426 28.2713C21.3906 28.8977 22.017 29.2109 22.9219 29.2109C23.8267 29.2109 24.4432 28.9027 24.7713 28.2862C25.1094 27.6697 25.2784 26.9986 25.2784 26.2727V24.6619C25.2784 23.9361 25.1193 23.2599 24.8011 22.6335C24.483 22.0071 23.8565 21.6939 22.9219 21.6939C22.027 21.6939 21.4055 22.0071 21.0575 22.6335C20.7095 23.2599 20.5355 23.9361 20.5355 24.6619ZM0.519886 8.79261V7.18182C0.519886 5.94886 0.783381 4.82031 1.31037 3.79616C1.83736 2.76207 2.59801 1.93679 3.59233 1.32031C4.59659 0.703835 5.80966 0.395596 7.23153 0.395596C8.70313 0.395596 9.93608 0.703835 10.9304 1.32031C11.9247 1.93679 12.6804 2.76207 13.1974 3.79616C13.7145 4.82031 13.973 5.94886 13.973 7.18182V8.79261C13.973 10.0256 13.7095 11.1541 13.1825 12.1783C12.6655 13.2024 11.9048 14.0227 10.9006 14.6392C9.90625 15.2457 8.68324 15.549 7.23153 15.549C5.77983 15.549 4.55185 15.2408 3.54759 14.6243C2.55327 13.9979 1.79759 13.1776 1.28054 12.1634C0.773438 11.1392 0.519886 10.0156 0.519886 8.79261ZM4.88992 7.18182V8.79261C4.88992 9.51846 5.05895 10.1896 5.39702 10.8061C5.74503 11.4226 6.35653 11.7308 7.23153 11.7308C8.14631 11.7308 8.76776 11.4226 9.09588 10.8061C9.43395 10.1896 9.60298 9.51846 9.60298 8.79261V7.18182C9.60298 6.45597 9.44389 5.77983 9.12571 5.15341C8.80753 4.52699 8.17614 4.21378 7.23153 4.21378C6.34659 4.21378 5.73509 4.53196 5.39702 5.16832C5.05895 5.80469 4.88992 6.47585 4.88992 7.18182ZM2.48864 32L23.4886 1.45454H27.3963L6.39631 32H2.48864Z" fill="black"/>
</svg>
