<svg width="48" height="60" viewBox="0 0 48 60" fill="none" xmlns="http://www.w3.org/2000/svg">
<path d="M46.9154 7.63047L24.9236 0.135912C24.6583 0.0453038 24.3023 0 23.9463 0C23.5904 0 23.2344 0.0453038 22.9691 0.135912L0.97727 7.63047C0.440095 7.81168 0 8.43299 0 9.00253V40.2234C0 40.7929 0.368903 41.5437 0.81547 41.8996L23.1244 59.2834C23.3509 59.4581 23.6422 59.5487 23.9399 59.5487C24.2376 59.5487 24.5353 59.4581 24.7553 59.2834L47.0643 41.8996C47.5108 41.5501 47.8797 40.7994 47.8797 40.2234V9.00253C47.8927 8.43299 47.4526 7.81815 46.9154 7.63047ZM43.2328 38.9807L23.9463 54.0087L4.65983 38.9807V11.3066L23.9463 4.73102L43.2328 11.3066V38.9807Z" fill="#333333"/>
<path d="M4.65982 11.3065V38.9807L23.9463 54.0086L43.2328 38.9807V11.3065L23.9463 4.73096L4.65982 11.3065ZM31.7645 17.8626H35.337C35.7577 17.8626 36.0036 18.3415 35.7577 18.6846L21.9983 37.628C21.9015 37.7604 21.7749 37.8681 21.6287 37.9424C21.4825 38.0166 21.3209 38.0553 21.1569 38.0553C20.9929 38.0553 20.8313 38.0166 20.6851 37.9424C20.5389 37.8681 20.4123 37.7604 20.3155 37.628L12.135 26.3668C11.889 26.0238 12.135 25.5449 12.5556 25.5449H16.1282C16.4647 25.5449 16.7754 25.7067 16.9695 25.972L21.1569 31.7385L30.9231 18.2898C31.1173 18.0244 31.4344 17.8626 31.7645 17.8626Z" fill="#07EDFF"/>
<path d="M16.9695 25.9722C16.7754 25.7068 16.4647 25.545 16.1282 25.545H12.5556C12.135 25.545 11.889 26.024 12.135 26.367L20.3155 37.6282C20.4123 37.7606 20.5389 37.8683 20.6851 37.9426C20.8313 38.0168 20.9929 38.0555 21.1569 38.0555C21.3209 38.0555 21.4825 38.0168 21.6287 37.9426C21.7749 37.8683 21.9015 37.7606 21.9983 37.6282L35.7577 18.6847C36.0036 18.3417 35.7577 17.8628 35.337 17.8628H31.7645C31.4344 17.8628 31.1173 18.0246 30.9231 18.2899L21.1569 31.7387L16.9695 25.9722Z" fill="#333333"/>
</svg>
