<svg width="26" height="30" viewBox="0 0 26 30" fill="none" xmlns="http://www.w3.org/2000/svg">
<path d="M24.8182 7.38636H19.7955V6.79545C19.7955 3.04318 16.7523 0 13 0C9.24773 0 6.20455 3.04318 6.20455 6.79545V7.38636H1.18182C0.528125 7.38636 0 7.91449 0 8.56818V28.3636C0 29.0173 0.528125 29.5455 1.18182 29.5455H24.8182C25.4719 29.5455 26 29.0173 26 28.3636V8.56818C26 7.91449 25.4719 7.38636 24.8182 7.38636ZM8.86364 6.79545C8.86364 4.50937 10.7139 2.65909 13 2.65909C15.2861 2.65909 17.1364 4.50937 17.1364 6.79545V7.38636H8.86364V6.79545ZM23.3409 26.8864H2.65909V10.0455H6.20455V13.2955C6.20455 13.458 6.3375 13.5909 6.5 13.5909H8.56818C8.73068 13.5909 8.86364 13.458 8.86364 13.2955V10.0455H17.1364V13.2955C17.1364 13.458 17.2693 13.5909 17.4318 13.5909H19.5C19.6625 13.5909 19.7955 13.458 19.7955 13.2955V10.0455H23.3409V26.8864Z" fill="black"/>
</svg>
