<svg width="24" height="29" viewBox="0 0 24 29" fill="none" xmlns="http://www.w3.org/2000/svg">
<path d="M18.3683 2.37622H10.5311L3.91519 13.8005H9.40752L7.3034 22.21L18.4625 11.5638H11.0999L18.3683 2.37622Z" fill="#D9D9D9"/>
<path d="M23.6966 9.18761H16.0095L22.922 0.453623C23.0651 0.268684 22.9359 0 22.7022 0H9.32028C9.22258 0 9.12836 0.0523411 9.07951 0.139576L0.0384594 15.7547C-0.0697122 15.9396 0.0628851 16.1734 0.279228 16.1734H6.36475L3.24522 28.6515C3.17892 28.9237 3.50693 29.1156 3.70931 28.9202L23.8886 9.66566C24.07 9.49467 23.9479 9.18761 23.6966 9.18761ZM7.3034 22.2101L9.40752 13.8006H3.91519L10.5311 2.37629H18.3683L11.0999 11.5639H18.4625L7.3034 22.2101Z" fill="black"/>
</svg>
