<svg width="29" height="28" viewBox="0 0 29 28" fill="none" xmlns="http://www.w3.org/2000/svg">
<path d="M20.8093 13.1508C20.5986 13.3613 20.313 13.4795 20.0152 13.4795C19.7174 13.4795 19.4318 13.3613 19.2211 13.1508L14.8562 8.7859C14.6457 8.57521 14.5275 8.2896 14.5275 7.9918C14.5275 7.69401 14.6457 7.4084 14.8562 7.1977L19.5156 2.54179C18.5887 2.4727 17.6578 2.60451 16.7864 2.92823C15.9151 3.25194 15.124 3.75993 14.467 4.41748C12.4301 6.45444 12.0374 9.51164 13.289 11.9413L11.4379 13.7924C11.4344 13.7924 11.4344 13.7889 11.4344 13.7889L3.36716 21.8561L6.14388 24.6328L15.7502 15.023L15.7537 15.0265L16.0622 14.718C18.4919 15.9696 21.5491 15.5769 23.586 13.54C24.9604 12.1692 25.5949 10.311 25.4652 8.49491L20.8093 13.1508Z" fill="#D9D9D9"/>
<path d="M26.7624 4.41397C26.7449 4.38242 26.7204 4.35086 26.6923 4.32632C26.517 4.15102 26.233 4.15102 26.0577 4.32632L20.017 10.3671L17.6364 7.98654L23.6807 1.94227C23.7087 1.91422 23.7298 1.88618 23.7508 1.85462C23.877 1.64076 23.8069 1.36729 23.593 1.24108C20.1502 -0.792376 15.6415 -0.326084 12.679 2.63294C10.33 4.98194 9.55168 8.3126 10.3475 11.3067L0.0750745 21.5791C-0.0301042 21.6843 -0.0230924 21.8561 0.0855922 21.9648L6.0352 27.9144C6.14389 28.0231 6.31918 28.0301 6.42086 27.9249L16.6898 17.656C19.6874 18.4553 23.0181 17.6805 25.3706 15.328C28.3296 12.3655 28.7959 7.85682 26.7624 4.41397ZM23.586 13.54C21.5491 15.5769 18.4919 15.9696 16.0622 14.718L15.7537 15.0265L15.7502 15.023L6.14389 24.6328L3.36717 21.8561L11.4344 13.7889C11.4344 13.7889 11.4344 13.7924 11.4379 13.7924L13.289 11.9413C12.0374 9.51163 12.4301 6.45444 14.467 4.41748C15.124 3.75993 15.9152 3.25194 16.7865 2.92823C17.6578 2.60451 18.5887 2.4727 19.5156 2.54179L14.8562 7.1977C14.6457 7.40839 14.5275 7.69401 14.5275 7.9918C14.5275 8.28959 14.6457 8.57521 14.8562 8.7859L19.2211 13.1508C19.4318 13.3613 19.7174 13.4795 20.0152 13.4795C20.313 13.4795 20.5986 13.3613 20.8093 13.1508L25.4652 8.49491C25.5949 10.311 24.9604 12.1692 23.586 13.54Z" fill="black"/>
</svg>
