<svg width="48" height="55" viewBox="0 0 48 55" fill="none" xmlns="http://www.w3.org/2000/svg">
<path d="M4.89682 49.5124H42.9832V28.8369H4.89682V49.5124ZM23.94 34.1418C24.631 34.142 25.304 34.3614 25.8624 34.7683C26.4208 35.1753 26.8356 35.749 27.0473 36.4067C27.259 37.0644 27.2566 37.7723 27.0404 38.4286C26.8242 39.0849 26.4055 39.6556 25.8443 40.0588V43.6634C25.8443 43.9626 25.5995 44.2075 25.3002 44.2075H22.5798C22.2805 44.2075 22.0357 43.9626 22.0357 43.6634V40.0588C21.4745 39.6556 21.0558 39.0849 20.8396 38.4286C20.6234 37.7723 20.621 37.0644 20.8327 36.4067C21.0444 35.749 21.4592 35.1753 22.0176 34.7683C22.576 34.3614 23.2491 34.142 23.94 34.1418Z" fill="#07EDFF"/>
<path d="M22.0357 40.0587V43.6633C22.0357 43.9626 22.2805 44.2074 22.5798 44.2074H25.3002C25.5995 44.2074 25.8443 43.9626 25.8443 43.6633V40.0587C26.4057 39.6557 26.8248 39.0849 27.0411 38.4285C27.2575 37.7721 27.26 37.064 27.0482 36.4061C26.8365 35.7482 26.4215 35.1744 25.863 34.7674C25.3044 34.3604 24.6311 34.1411 23.94 34.1411C23.2489 34.1411 22.5756 34.3604 22.017 34.7674C21.4585 35.1744 21.0435 35.7482 20.8318 36.4061C20.62 37.064 20.6225 37.7721 20.8389 38.4285C21.0552 39.0849 21.4743 39.6557 22.0357 40.0587Z" fill="black"/>
<path d="M45.7036 23.94H11.698V8.70545C11.698 6.6039 13.405 4.89682 15.5066 4.89682H32.3734C34.475 4.89682 36.182 6.6039 36.182 8.70545V13.3302C36.182 13.6295 36.4269 13.8743 36.7261 13.8743H40.5348C40.834 13.8743 41.0789 13.6295 41.0789 13.3302V8.70545C41.0789 3.89705 37.1818 0 32.3734 0H15.5066C10.6982 0 6.80114 3.89705 6.80114 8.70545V23.94H2.17636C0.972562 23.94 0 24.9126 0 26.1164V52.2327C0 53.4365 0.972562 54.4091 2.17636 54.4091H45.7036C46.9074 54.4091 47.88 53.4365 47.88 52.2327V26.1164C47.88 24.9126 46.9074 23.94 45.7036 23.94ZM42.9832 49.5123H4.89682V28.8368H42.9832V49.5123Z" fill="black"/>
</svg>
