<svg width="41" height="35" viewBox="0 0 41 35" fill="none" xmlns="http://www.w3.org/2000/svg">
<path fill-rule="evenodd" clip-rule="evenodd" d="M16.4667 2C19.8908 2 22.6667 4.77583 22.6667 8.2V10.2667C22.6667 13.6908 19.8908 16.4667 16.4667 16.4667C13.0425 16.4667 10.2667 13.6908 10.2667 10.2667V8.2C10.2667 4.77583 13.0425 2 16.4667 2ZM30.9333 30.9333C30.9333 30.4317 30.9333 29.9301 30.9333 29.4284C30.9333 22.8432 23.315 18.5333 16.4667 18.5333C9.61834 18.5333 2 22.8432 2 29.4284V30.9333C2 32.0747 2.92528 33 4.06667 33H28.8667C30.0081 33 30.9333 32.0747 30.9333 30.9333Z" stroke="#2A2E3B" stroke-width="2.66" stroke-linecap="round" stroke-linejoin="round"/>
<path fill-rule="evenodd" clip-rule="evenodd" d="M24.7745 2.36755C27.1611 3.2302 28.8667 5.51594 28.8667 8.20004V10.2667C28.8667 12.9473 27.1655 15.2306 24.7838 16.0958C26.1436 14.4443 26.8226 12.1562 26.8206 9.23169C26.8186 6.30714 26.1366 4.0191 24.7745 2.36755ZM35.0667 33H37.1333C38.2747 33 39.2 32.0748 39.2 30.9334C39.2 30.4317 39.2 29.9301 39.2 29.4285C39.2 24.9441 35.6672 21.5148 31.2504 19.7832C31.2504 19.7832 37.1333 24.7334 35.0667 33Z" fill="#2A2E3B" stroke="#2A2E3B" stroke-width="2.66" stroke-linecap="round" stroke-linejoin="round"/>
</svg>
