<svg width="189" height="138" viewBox="0 0 189 138" fill="none" xmlns="http://www.w3.org/2000/svg">
<path d="M189 67.943C189 67.4789 189 66.9516 188.979 66.3398C188.958 64.6312 188.916 62.7117 188.873 60.6656C188.705 54.7805 188.409 48.9164 187.945 43.3898C187.312 35.775 186.384 29.4258 185.119 24.6586C183.783 19.6836 181.165 15.1463 177.526 11.5002C173.888 7.85414 169.356 5.22695 164.384 3.88125C158.414 2.27812 146.728 1.28672 130.275 0.674999C122.449 0.379687 114.075 0.189842 105.701 0.0843737C102.769 0.0421862 100.048 0.0210938 97.6008 0H91.3992C88.9523 0.0210938 86.2312 0.0421862 83.2992 0.0843737C74.925 0.189842 66.5508 0.379687 58.725 0.674999C42.2719 1.30781 30.5648 2.29922 24.6164 3.88125C19.6425 5.22364 15.1088 7.84973 11.4696 11.4963C7.8304 15.1429 5.21353 19.682 3.88125 24.6586C2.59453 29.4258 1.6875 35.775 1.05469 43.3898C0.590625 48.9164 0.295312 54.7805 0.126562 60.6656C0.0632809 62.7117 0.0421872 64.6312 0.0210934 66.3398C0.0210934 66.9516 0 67.4789 0 67.943V69.1242C0 69.5883 -3.22179e-07 70.1156 0.0210934 70.7273C0.0421872 72.4359 0.0843747 74.3555 0.126562 76.4016C0.295312 82.2867 0.590625 88.1508 1.05469 93.6773C1.6875 101.292 2.61563 107.641 3.88125 112.409C6.58125 122.513 14.5125 130.486 24.6164 133.186C30.5648 134.789 42.2719 135.78 58.725 136.392C66.5508 136.688 74.925 136.877 83.2992 136.983C86.2312 137.025 88.9523 137.046 91.3992 137.067H97.6008C100.048 137.046 102.769 137.025 105.701 136.983C114.075 136.877 122.449 136.688 130.275 136.392C146.728 135.759 158.435 134.768 164.384 133.186C174.488 130.486 182.419 122.534 185.119 112.409C186.405 107.641 187.312 101.292 187.945 93.6773C188.409 88.1508 188.705 82.2867 188.873 76.4016C188.937 74.3555 188.958 72.4359 188.979 70.7273C188.979 70.1156 189 69.5883 189 69.1242V67.943ZM173.812 69.0398C173.812 69.4828 173.812 69.968 173.791 70.5375C173.77 72.1828 173.728 73.9969 173.686 75.9586C173.538 81.5695 173.243 87.1805 172.8 92.3906C172.23 99.1828 171.429 104.752 170.438 108.485C169.13 113.358 165.291 117.218 160.439 118.505C156.009 119.686 144.851 120.635 129.684 121.205C122.006 121.5 113.737 121.69 105.49 121.795C102.6 121.838 99.9211 121.859 97.5164 121.859H91.4836L83.5102 121.795C75.2625 121.69 67.0148 121.5 59.3156 121.205C44.1492 120.614 32.9695 119.686 28.5609 118.505C23.7094 117.197 19.8703 113.358 18.5625 108.485C17.5711 104.752 16.7695 99.1828 16.2 92.3906C15.757 87.1805 15.4828 81.5695 15.3141 75.9586C15.2508 73.9969 15.2297 72.1617 15.2086 70.5375C15.2086 69.968 15.1875 69.4617 15.1875 69.0398V68.0273C15.1875 67.5844 15.1875 67.0992 15.2086 66.5297C15.2297 64.8844 15.2719 63.0703 15.3141 61.1086C15.4617 55.4977 15.757 49.8867 16.2 44.6766C16.7695 37.8844 17.5711 32.3156 18.5625 28.582C19.8703 23.7094 23.7094 19.8492 28.5609 18.5625C32.9906 17.3813 44.1492 16.432 59.3156 15.8625C66.9938 15.5672 75.2625 15.3773 83.5102 15.2719C86.4 15.2297 89.0789 15.2086 91.4836 15.2086H97.5164L105.49 15.2719C113.737 15.3773 121.985 15.5672 129.684 15.8625C144.851 16.4531 156.03 17.3813 160.439 18.5625C165.291 19.8703 169.13 23.7094 170.438 28.582C171.429 32.3156 172.23 37.8844 172.8 44.6766C173.243 49.8867 173.517 55.4977 173.686 61.1086C173.749 63.0703 173.77 64.9055 173.791 66.5297C173.791 67.0992 173.812 67.6055 173.812 68.0273V69.0398ZM75.7266 96.7992L124.664 68.3227L75.7266 40.268V96.7992Z" fill="#07EDFF"/>
</svg>
