<svg width="41" height="35" viewBox="0 0 41 35" fill="none" xmlns="http://www.w3.org/2000/svg">
<path d="M39.3571 19.5798V26.1722C39.3571 29.0278 32.4702 32.7646 23.9748 32.7646C15.4793 32.7646 8.59243 29.0278 8.59243 26.1722C8.59243 25.2327 8.59243 23.4015 8.59243 20.6785" stroke="#2A2E3B" stroke-width="2.81647" stroke-linecap="round" stroke-linejoin="round"/>
<path d="M9.23818 21.2471C11.1386 23.7704 17.0172 26.1363 23.9748 26.1363C32.4702 26.1363 39.3571 22.6088 39.3571 19.5747C39.3571 17.8722 37.1887 16.0062 33.7843 14.6963" stroke="#2A2E3B" stroke-width="2.81647" stroke-linecap="round" stroke-linejoin="round"/>
<path d="M32.7647 8.59241V15.1848C32.7647 18.0405 25.8778 21.7773 17.3824 21.7773C8.88691 21.7773 2 18.0405 2 15.1848C2 13.7756 2 10.0016 2 8.59241" stroke="#2A2E3B" stroke-width="2.81647" stroke-linecap="round" stroke-linejoin="round"/>
<path fill-rule="evenodd" clip-rule="evenodd" d="M17.3824 15.1489C25.8778 15.1489 32.7647 11.6214 32.7647 8.58734C32.7647 5.55325 25.8778 2 17.3824 2C8.88691 2 2 5.55325 2 8.58734C2 11.6214 8.88691 15.1489 17.3824 15.1489Z" stroke="#2A2E3B" stroke-width="2.81647" stroke-linecap="round" stroke-linejoin="round"/>
</svg>
