<svg width="29" height="29" viewBox="0 0 29 29" fill="none" xmlns="http://www.w3.org/2000/svg">
<path d="M14.5 0C6.49263 0 0 6.49263 0 14.5C0 22.5074 6.49263 29 14.5 29C22.5074 29 29 22.5074 29 14.5C29 6.49263 22.5074 0 14.5 0ZM14.5 26.5402C7.85201 26.5402 2.45982 21.148 2.45982 14.5C2.45982 7.85201 7.85201 2.45982 14.5 2.45982C21.148 2.45982 26.5402 7.85201 26.5402 14.5C26.5402 21.148 21.148 26.5402 14.5 26.5402ZM16.0439 13.7491L15.2218 13.5581V9.21138C16.4517 9.37969 17.2123 10.15 17.3417 11.0951C17.3579 11.2246 17.468 11.3184 17.5974 11.3184H19.0507C19.2028 11.3184 19.3225 11.1857 19.3096 11.0336C19.1122 9.01719 17.4518 7.72255 15.2347 7.49922V6.44085C15.2347 6.29844 15.1182 6.18192 14.9758 6.18192H14.0663C13.9239 6.18192 13.8074 6.29844 13.8074 6.44085V7.50893C11.5158 7.73225 9.72277 8.99777 9.72277 11.3605C9.72277 13.5484 11.3346 14.6036 13.0273 15.0081L13.8268 15.2121V19.8307C12.3962 19.6397 11.5935 18.8759 11.4285 17.8467C11.409 17.7237 11.299 17.633 11.1728 17.633H9.67745C9.52533 17.633 9.40558 17.7625 9.41853 17.9146C9.56417 19.6948 10.9138 21.3325 13.7944 21.5429V22.5592C13.7944 22.7016 13.9109 22.8181 14.0533 22.8181H14.9725C15.115 22.8181 15.2315 22.7016 15.2315 22.5559L15.225 21.5299C17.7593 21.3066 19.5718 19.9504 19.5718 17.5165C19.5685 15.2703 18.1412 14.267 16.0439 13.7491ZM13.8235 13.2248C13.6423 13.173 13.4902 13.1244 13.3381 13.0629C12.2441 12.6681 11.7359 12.0305 11.7359 11.2084C11.7359 10.0335 12.626 9.3635 13.8235 9.21138V13.2248ZM15.2218 19.8404V15.5131C15.3221 15.5422 15.4127 15.5648 15.5066 15.5843C17.0375 16.0503 17.5521 16.6977 17.5521 17.6913C17.5521 18.9568 16.6006 19.7174 15.2218 19.8404Z" fill="black"/>
</svg>
