<svg width="59" height="59" viewBox="0 0 59 59" fill="none" xmlns="http://www.w3.org/2000/svg">
<path d="M29.5 0C13.2092 0 0 13.2092 0 29.5C0 45.7908 13.2092 59 29.5 59C45.7908 59 59 45.7908 59 29.5C59 13.2092 45.7908 0 29.5 0ZM29.5 53.9955C15.9748 53.9955 5.00446 43.0252 5.00446 29.5C5.00446 15.9748 15.9748 5.00446 29.5 5.00446C43.0252 5.00446 53.9955 15.9748 53.9955 29.5C53.9955 43.0252 43.0252 53.9955 29.5 53.9955Z" fill="#333333"/>
<path d="M23.8766 22.8031C23.8766 24.4756 24.9104 25.7728 27.1361 26.5762C27.4456 26.7013 27.755 26.8001 28.1238 26.9054V18.7402C25.6874 19.0497 23.8766 20.4128 23.8766 22.8031ZM31.5479 31.7057C31.3569 31.6662 31.1726 31.6201 30.9684 31.5609V40.3648C33.7736 40.1146 35.7095 38.5671 35.7095 35.9925C35.7095 33.9709 34.6625 32.654 31.5479 31.7057Z" fill="#07EDFF"/>
<path d="M29.5 5.00439C15.9748 5.00439 5.00446 15.9747 5.00446 29.4999C5.00446 43.0252 15.9748 53.9955 29.5 53.9955C43.0252 53.9955 53.9955 43.0252 53.9955 29.4999C53.9955 15.9747 43.0252 5.00439 29.5 5.00439ZM30.975 43.8022L30.9882 45.8895C30.9882 46.1859 30.7511 46.4229 30.4614 46.4229H28.5913C28.3016 46.4229 28.0645 46.1859 28.0645 45.8961V43.8285C22.204 43.4005 19.4581 40.0686 19.1618 36.4469C19.1355 36.1374 19.3791 35.874 19.6886 35.874H22.7308C22.9876 35.874 23.2115 36.0584 23.251 36.3086C23.5868 38.4026 25.2199 39.9566 28.1303 40.3451V30.9486L26.5039 30.5337C23.06 29.7106 19.7808 27.564 19.7808 23.1127C19.7808 18.3057 23.4288 15.7311 28.0908 15.2767V13.1037C28.0908 12.814 28.3279 12.5769 28.6176 12.5769H30.468C30.7577 12.5769 30.9947 12.814 30.9947 13.1037V15.257C35.5053 15.7113 38.8834 18.3452 39.285 22.4476C39.2914 22.5209 39.2825 22.5946 39.259 22.6643C39.2355 22.734 39.1978 22.7981 39.1483 22.8525C39.0989 22.9069 39.0387 22.9505 38.9715 22.9805C38.9044 23.0106 38.8318 23.0264 38.7582 23.0271H35.8017C35.5383 23.0271 35.3144 22.8361 35.2815 22.5727C35.0181 20.6499 33.4706 19.0827 30.9684 18.7403V27.5837L32.6409 27.9722C36.9079 29.0258 39.8118 31.0671 39.8184 35.637C39.8184 40.5888 36.1309 43.3478 30.975 43.8022Z" fill="#07EDFF"/>
<path d="M32.6409 27.9722L30.9684 27.5837V18.7403C33.4706 19.0827 35.0181 20.6499 35.2814 22.5727C35.3144 22.8361 35.5383 23.027 35.8016 23.027H38.7582C39.0677 23.027 39.3114 22.757 39.285 22.4476C38.8833 18.3452 35.5053 15.7113 30.9947 15.2569V13.1037C30.9947 12.814 30.7577 12.5769 30.4679 12.5769H28.6176C28.3279 12.5769 28.0908 12.814 28.0908 13.1037V15.2767C23.4288 15.731 19.7808 18.3057 19.7808 23.1126C19.7808 27.564 23.06 29.7106 26.5039 30.5337L28.1303 30.9486V40.3451C25.2198 39.9566 23.5868 38.4026 23.251 36.3086C23.2115 36.0584 22.9876 35.874 22.7308 35.874H19.6886C19.3791 35.874 19.1355 36.1374 19.1618 36.4469C19.4581 40.0685 22.204 43.4005 28.0645 43.8285V45.8961C28.0645 46.1858 28.3015 46.4229 28.5913 46.4229H30.4614C30.7511 46.4229 30.9881 46.1858 30.9881 45.8895L30.975 43.8021C36.1309 43.3478 39.8184 40.5887 39.8184 35.6369C39.8118 31.0671 36.9079 29.0258 32.6409 27.9722ZM28.1237 26.9055C27.755 26.8001 27.4455 26.7013 27.136 26.5762C24.9104 25.7729 23.8765 24.4757 23.8765 22.8031C23.8765 20.4128 25.6874 19.0498 28.1237 18.7403V26.9055ZM30.9684 40.3649V31.5609C31.1725 31.6202 31.3569 31.6663 31.5479 31.7058C34.6625 32.654 35.7095 33.971 35.7095 35.9925C35.7095 38.5672 33.7735 40.1146 30.9684 40.3649Z" fill="#333333"/>
</svg>
