<svg width="44" height="34" viewBox="0 0 44 34" fill="none" xmlns="http://www.w3.org/2000/svg">
<path d="M41.7273 0H1.54545C0.690625 0 0 0.690625 0 1.54545V32.4545C0 33.3094 0.690625 34 1.54545 34H41.7273C42.5821 34 43.2727 33.3094 43.2727 32.4545V1.54545C43.2727 0.690625 42.5821 0 41.7273 0ZM39.7955 5.35114V30.5227H3.47727V5.35114L2.14432 4.31278L4.04233 1.87386L6.10938 3.4821H37.1682L39.2352 1.87386L41.1332 4.31278L39.7955 5.35114ZM37.1682 3.47727L21.6364 15.5511L6.10455 3.47727L4.0375 1.86903L2.13949 4.30795L3.47244 5.34631L19.9702 18.1736C20.4446 18.5422 21.0283 18.7423 21.6291 18.7423C22.2299 18.7423 22.8136 18.5422 23.2881 18.1736L39.7955 5.35114L41.1284 4.31278L39.2304 1.87386L37.1682 3.47727Z" fill="white"/>
</svg>
