<svg width="40" height="40" viewBox="0 0 40 40" fill="none" xmlns="http://www.w3.org/2000/svg">
<path d="M39.5956 19.5799L1.41373 0.436455C1.25854 0.358859 1.08052 0.340601 0.911636 0.381682C0.523656 0.477536 0.281738 0.87008 0.377592 1.26263L4.31217 17.3387C4.37151 17.5806 4.54952 17.7769 4.78688 17.8545L11.5286 20.1687L4.79144 22.4829C4.55409 22.565 4.37607 22.7567 4.3213 22.9987L0.377592 39.0976C0.336512 39.2664 0.35477 39.4445 0.432366 39.5951C0.610381 39.9557 1.04857 40.1017 1.41373 39.9237L39.5956 20.8899C39.7371 20.8214 39.8512 20.7027 39.9242 20.5658C40.1022 20.2006 39.9562 19.7624 39.5956 19.5799ZM4.87816 34.524L7.1741 25.1394L20.6484 20.5156C20.7534 20.4791 20.8401 20.3969 20.8766 20.2874C20.9405 20.0957 20.8401 19.8902 20.6484 19.8218L7.1741 15.2025L4.88729 5.85449L33.5522 20.228L4.87816 34.524Z" fill="white"/>
</svg>
