<svg width="40" height="39" viewBox="0 0 40 39" fill="none" xmlns="http://www.w3.org/2000/svg">
<path d="M37.7194 22.7577C37.9198 21.658 38.0274 20.5338 38.0274 19.4096C38.0274 16.9168 37.5386 14.4973 36.5757 12.2245C35.647 10.0249 34.3126 8.05026 32.6165 6.35418C30.9346 4.66799 28.9409 3.32497 26.7462 2.39992C24.4685 1.43702 22.0539 0.948239 19.5611 0.948239C18.3881 0.948239 17.2101 1.06066 16.0663 1.28061C14.4837 0.441973 12.7203 0.00237643 10.9292 0C8.01119 0 5.26423 1.13886 3.20156 3.20153C2.18373 4.21413 1.37672 5.41845 0.8272 6.74486C0.277675 8.07127 -0.00346533 9.49346 3.22367e-05 10.9292C3.22367e-05 12.7866 0.47904 14.6146 1.37351 16.2276C1.19266 17.2736 1.09491 18.344 1.09491 19.4096C1.09491 21.9024 1.58369 24.3218 2.54659 26.5947C3.47528 28.7942 4.80477 30.7689 6.50085 32.465C8.19692 34.161 10.1716 35.4905 12.3711 36.4192C14.6489 37.3821 17.0634 37.8709 19.5562 37.8709C20.6413 37.8709 21.7264 37.7732 22.792 37.5825C24.4294 38.5063 26.277 39 28.1686 39C31.0866 39 33.8336 37.866 35.8963 35.7985C37.9638 33.7358 39.0978 30.9888 39.0978 28.0708C39.1027 26.2134 38.6237 24.3805 37.7194 22.7577ZM33.4132 33.3155C32.0104 34.7231 30.1579 35.4856 28.1735 35.4856C26.8978 35.4856 25.6416 35.1533 24.5272 34.5227L23.4274 33.902L22.181 34.1219C21.311 34.2784 20.4312 34.3566 19.5611 34.3566C17.5376 34.3566 15.5873 33.9606 13.7397 33.1786C11.9654 32.4308 10.3671 31.3554 8.98875 29.9771C7.6243 28.6173 6.53698 27.0054 5.78722 25.231C5.00517 23.3883 4.61414 21.438 4.61414 19.4145C4.61414 18.564 4.69235 17.6939 4.83898 16.8337L5.05405 15.6068L4.44796 14.5169C3.83665 13.4199 3.51532 12.185 3.51438 10.9292C3.51438 8.94473 4.28177 7.09224 5.68458 5.68943C7.09227 4.28663 8.94476 3.51924 10.9292 3.51924C12.1464 3.52253 13.3444 3.82286 14.4191 4.39416L15.514 4.97092L16.7262 4.73631C17.65 4.56035 18.6031 4.46748 19.5611 4.46748C21.5847 4.46748 23.5349 4.86339 25.3777 5.64056C27.1617 6.39328 28.7551 7.4686 30.1286 8.84208C31.507 10.2156 32.5823 11.8139 33.335 13.5931C34.1171 15.4358 34.5081 17.386 34.5081 19.4096C34.5081 20.3089 34.425 21.2181 34.2588 22.1223L34.0291 23.3687L34.645 24.4734C35.2608 25.5731 35.5834 26.8195 35.5834 28.0757C35.5834 30.065 34.8161 31.9126 33.4132 33.3155ZM23.0413 17.2638L18.7204 16.3058C17.0781 15.9294 15.1865 15.4358 15.1865 13.8863C15.1865 12.3369 16.5111 11.2518 18.9062 11.2518C23.7305 11.2518 23.2905 14.5657 25.6856 14.5657C26.9466 14.5657 28.0513 13.8228 28.0513 12.5519C28.0513 9.58015 23.2905 7.34641 19.2532 7.34641C14.8688 7.34641 10.2009 9.20867 10.2009 14.1649C10.2009 16.5502 11.0514 19.0919 15.7535 20.2698L21.5896 21.7264C23.3541 22.1614 23.7989 23.1537 23.7989 24.053C23.7989 25.5438 22.3179 27.0004 19.6344 27.0004C14.3947 27.0004 15.123 22.9679 12.3174 22.9679C11.0563 22.9679 10.1423 23.8379 10.1423 25.0746C10.1423 27.4892 13.075 30.7151 19.6344 30.7151C25.8762 30.7151 28.9702 27.7091 28.9702 23.6767C28.9702 21.0812 27.7727 18.3196 23.0413 17.2638Z" fill="white"/>
</svg>
